<svg width="11" height="10" viewBox="0 0 11 10" fill="none" xmlns="http://www.w3.org/2000/svg">
<path fill-rule="evenodd" clip-rule="evenodd" d="M3 2.98023e-08C2.72386 2.98023e-08 2.5 0.223858 2.5 0.5V1H1.5C0.947715 1 0.5 1.44772 0.5 2V9C0.5 9.55228 0.947715 10 1.5 10H9.5C10.0523 10 10.5 9.55228 10.5 9V2C10.5 1.44772 10.0523 1 9.5 1H8.5V0.5C8.5 0.223858 8.27614 2.98023e-08 8 2.98023e-08C7.72386 2.98023e-08 7.5 0.223858 7.5 0.5V1H3.5V0.5C3.5 0.223858 3.27614 2.98023e-08 3 2.98023e-08ZM9.5 3H1.5L1.5 9H9.5V3Z" fill="#002033" fill-opacity="0.35"/>
</svg>
