<svg width="14" height="14" viewBox="0 0 14 14" fill="none" xmlns="http://www.w3.org/2000/svg">
<path fill-rule="evenodd" clip-rule="evenodd" d="M0.333313 1.00016C0.333313 0.631973 0.63179 0.333496 0.99998 0.333496H13C13.3682 0.333496 13.6666 0.631973 13.6666 1.00016V13.0002C13.6666 13.3684 13.3682 13.6668 13 13.6668H0.99998C0.63179 13.6668 0.333313 13.3684 0.333313 13.0002V1.00016ZM1.66665 5.66683V8.3335H6.33331V5.66683H1.66665ZM7.66665 5.66683V8.3335H12.3333V5.66683H7.66665ZM12.3333 4.3335H7.66665V1.66683H12.3333V4.3335ZM6.33331 1.66683V4.3335H1.66665V1.66683H6.33331ZM12.3333 9.66683H7.66665V12.3335H12.3333V9.66683ZM6.33331 12.3335V9.66683H1.66665V12.3335H6.33331Z" fill="white"/>
</svg>
