<svg width="6" height="14" viewBox="0 0 6 14" fill="none" xmlns="http://www.w3.org/2000/svg">
<path d="M6 12.5321L5.8044 13.309C5.21762 13.5341 4.74889 13.7053 4.39985 13.8231C4.05044 13.9412 3.64444 14 3.18186 14C2.47149 14 1.91895 13.8309 1.52487 13.4951C1.13079 13.1579 0.933693 12.7306 0.933693 12.2122C0.933693 12.0116 0.947996 11.8052 0.97773 11.5949C1.00772 11.3843 1.05539 11.1472 1.12063 10.8822L1.85396 8.36016C1.9192 8.11866 1.97466 7.88984 2.01907 7.67345C2.06411 7.4584 2.08582 7.26054 2.08582 7.08244C2.08582 6.76036 2.01719 6.53507 1.88056 6.40841C1.74393 6.28211 1.48322 6.21799 1.09617 6.21799C0.906593 6.21799 0.71175 6.24749 0.513142 6.30454C0.313657 6.36184 0.143153 6.41718 0 6.46863L0.196098 5.6911C0.676495 5.50104 1.13569 5.33829 1.57493 5.20322C2.01418 5.06778 2.42921 5 2.82178 5C3.52726 5 4.07164 5.16567 4.45392 5.49702C4.83621 5.82861 5.02729 6.25846 5.02729 6.78815C5.02729 6.89775 5.01474 7.09085 4.98777 7.36685C4.96142 7.64346 4.91236 7.89691 4.84085 8.12743L4.11066 10.6394C4.05081 10.8411 3.99699 11.0718 3.95019 11.3313C3.90189 11.5891 3.8788 11.7861 3.8788 11.9183C3.8788 12.2518 3.95534 12.4796 4.10878 12.6006C4.26335 12.7217 4.52958 12.7819 4.90772 12.7819C5.08525 12.7819 5.28725 12.7513 5.5117 12.6912C5.73553 12.6311 5.89875 12.5783 6 12.5321Z" fill="white"/>
<path d="M6 1.5C6 2.32843 5.32843 3 4.5 3C3.67157 3 3 2.32843 3 1.5C3 0.671573 3.67157 0 4.5 0C5.32843 0 6 0.671573 6 1.5Z" fill="white"/>
</svg>
