<svg width="4" height="11" viewBox="0 0 4 11" fill="none" xmlns="http://www.w3.org/2000/svg">
<path d="M3.8696 10.1818L4 9.57754C3.9325 9.61348 3.82368 9.65453 3.67447 9.70128C3.52483 9.74802 3.39017 9.77182 3.27181 9.77182C3.01972 9.77182 2.84223 9.72498 2.73918 9.63083C2.63689 9.53667 2.58587 9.35955 2.58587 9.10013C2.58587 8.99735 2.60126 8.84413 2.63346 8.64359C2.66466 8.44172 2.70054 8.26233 2.74044 8.1054L3.22723 6.15169C3.27491 5.97239 3.30761 5.77526 3.32518 5.56012C3.34316 5.34545 3.35153 5.19526 3.35153 5.11002C3.35153 4.69804 3.22414 4.36371 2.96928 4.10581C2.71443 3.8481 2.3515 3.71924 1.88119 3.71924C1.61947 3.71924 1.34279 3.77196 1.04996 3.8773C0.757125 3.98236 0.450996 4.10894 0.130732 4.25676L0 4.86151C0.0954353 4.82149 0.209104 4.77844 0.342095 4.73388C0.4745 4.68951 0.604395 4.66656 0.730778 4.66656C0.988813 4.66656 1.16262 4.71643 1.25371 4.81466C1.34479 4.91318 1.39054 5.0884 1.39054 5.33891C1.39054 5.47744 1.37607 5.63133 1.34605 5.79859C1.31644 5.96689 1.27947 6.14486 1.23597 6.33269L0.747088 8.29428C0.703594 8.50041 0.671811 8.68483 0.65182 8.84858C0.631997 9.01214 0.622462 9.17267 0.622462 9.32874C0.622462 9.7319 0.753863 10.0642 1.01658 10.3265C1.2793 10.5877 1.64766 10.7192 2.12124 10.7192C2.42963 10.7192 2.70029 10.6735 2.93323 10.5817C3.16592 10.4901 3.47841 10.3568 3.8696 10.1818Z" fill="#00395C" fill-opacity="0.8"/>
<path d="M4 1.71924C4 2.27152 3.55228 2.71924 3 2.71924C2.44772 2.71924 2 2.27152 2 1.71924C2 1.16695 2.44772 0.719238 3 0.719238C3.55228 0.719238 4 1.16695 4 1.71924Z" fill="#00395C" fill-opacity="0.8"/>
</svg>
