<svg width="10" height="11" viewBox="0 0 10 11" fill="none" xmlns="http://www.w3.org/2000/svg">
<path fill-rule="evenodd" clip-rule="evenodd" d="M5 10.7192C7.76142 10.7192 10 8.48066 10 5.71924C10 2.95781 7.76142 0.719238 5 0.719238C2.23858 0.719238 0 2.95781 0 5.71924C0 8.48066 2.23858 10.7192 5 10.7192ZM6.20293 2.44915C6.20293 2.92401 5.81798 3.30895 5.34313 3.30895C4.86827 3.30895 4.48333 2.92401 4.48333 2.44915C4.48333 1.9743 4.86827 1.58936 5.34313 1.58936C5.81798 1.58936 6.20293 1.9743 6.20293 2.44915ZM3.80172 4.00324C3.81285 3.95872 3.85285 3.92749 3.89874 3.92749H5.24508C5.44534 3.92749 5.63527 4.0167 5.76314 4.1708C5.89103 4.32492 5.94366 4.52805 5.90672 4.72487L5.90637 4.72664L5.2186 8.0578C5.2067 8.12302 5.23722 8.18875 5.29481 8.22171C5.35048 8.25359 5.42002 8.24824 5.47017 8.20822L5.4939 8.18929C5.5316 8.15921 5.55726 8.11655 5.56615 8.06914L5.6731 7.49936C5.68198 7.45207 5.72327 7.41781 5.77138 7.41781H6.93779C6.96754 7.41781 6.99574 7.43105 7.01474 7.45395C7.03374 7.47684 7.04156 7.50701 7.03607 7.53625L6.88943 8.31751C6.82098 8.68218 6.62369 9.01028 6.33365 9.24171L6.30992 9.26064C5.82829 9.64493 5.16062 9.69629 4.62588 9.39017C4.07063 9.07231 3.77744 8.43745 3.89547 7.80865L3.89591 7.80643L4.43096 5.27388H3.61214C3.58135 5.27388 3.55227 5.25969 3.53332 5.23542C3.51437 5.21115 3.50766 5.1795 3.51513 5.14962L3.80172 4.00324Z" fill="#00395C" fill-opacity="0.8"/>
</svg>
