<svg width="8" height="8" viewBox="0 0 8 8" fill="none" xmlns="http://www.w3.org/2000/svg">
<path d="M2.5 0H0.5C0.223858 0 0 0.223858 0 0.5V2.5C0 2.77614 0.223858 3 0.5 3H2.5C2.77614 3 3 2.77614 3 2.5V0.5C3 0.223858 2.77614 0 2.5 0Z" fill="white"/>
<path d="M7.5 0H5.5C5.22386 0 5 0.223858 5 0.5V2.5C5 2.77614 5.22386 3 5.5 3H7.5C7.77614 3 8 2.77614 8 2.5V0.5C8 0.223858 7.77614 0 7.5 0Z" fill="white"/>
<path d="M7.5 5H5.5C5.22386 5 5 5.22386 5 5.5V7.5C5 7.77614 5.22386 8 5.5 8H7.5C7.77614 8 8 7.77614 8 7.5V5.5C8 5.22386 7.77614 5 7.5 5Z" fill="white"/>
<path d="M3 7.5V5.5C3 5.22386 2.77614 5 2.5 5H0.5C0.223858 5 0 5.22386 0 5.5V7.5C0 7.77614 0.223858 8 0.5 8H2.5C2.77614 8 3 7.77614 3 7.5Z" fill="white"/>
</svg>
