<svg width="10" height="11" viewBox="0 0 10 11" fill="none" xmlns="http://www.w3.org/2000/svg">
<path d="M8.15833 8.17392C8.68582 7.49625 9 6.64434 9 5.71904C9 3.67896 7.47274 1.99558 5.4992 1.74989V0.743652C8.02624 0.994143 10 3.1261 10 5.71904C10 6.92061 9.57616 8.02319 8.86983 8.88542L8.15833 8.17392Z" fill="#00395C" fill-opacity="0.8"/>
<path d="M4.4992 0.743812C1.97292 0.995046 0 3.12664 0 5.71904C0 6.91924 0.422876 8.02068 1.12776 8.88247L1.83933 8.17091C1.31325 7.49372 1 6.64296 1 5.71904C1 3.67951 2.52643 1.9965 4.4992 1.75009V0.743812Z" fill="#00395C" fill-opacity="0.8"/>
<path d="M5 9.71904C4.07521 9.71904 3.22372 9.40521 2.54622 8.87823L1.8347 9.58975C2.69677 10.2956 3.79893 10.719 5 10.719C6.1997 10.719 7.30072 10.2965 8.16235 9.59216L7.45076 8.88057C6.77376 9.40614 5.92342 9.71904 5 9.71904Z" fill="#00395C" fill-opacity="0.8"/>
<path d="M4 7.71924L7 5.71924L4 3.71924V7.71924Z" fill="#00395C" fill-opacity="0.8"/>
</svg>
