<svg width="10" height="10" viewBox="0 0 10 10" fill="none" xmlns="http://www.w3.org/2000/svg">
<path fill-rule="evenodd" clip-rule="evenodd" d="M5 10C7.76142 10 10 7.76142 10 5C10 2.23858 7.76142 0 5 0C2.23858 0 0 2.23858 0 5C0 7.76142 2.23858 10 5 10ZM4.06571 3.57143H2.85714C2.85714 2.28572 3.77375 1.42857 5.14286 1.42857C6.41831 1.42857 7.28571 2.24678 7.28571 3.35714C7.28571 4.07816 6.98595 4.60104 6.35714 5C5.76401 5.37012 5.52857 5.53355 5.52857 5.995L5.56429 6.42857H4.38571L4.33571 5.98539C4.27774 5.21631 4.59886 4.81792 5.21429 4.42857C5.78958 4.05845 5.92857 3.8756 5.92857 3.42857C5.92857 2.93274 5.56567 2.5822 5 2.5822C4.43433 2.5822 4.09246 3.04268 4.06571 3.57143ZM5.79159 7.89089C5.79159 8.3956 5.48387 8.70804 4.98439 8.70804C4.48491 8.70804 4.17274 8.3956 4.17274 7.89089C4.17274 7.38137 4.48491 7.06893 4.98439 7.06893C5.48387 7.06893 5.79159 7.38137 5.79159 7.89089Z" fill="white"/>
</svg>
