<svg width="15" height="15" viewBox="0 0 15 15" fill="none" xmlns="http://www.w3.org/2000/svg">
<path fill-rule="evenodd" clip-rule="evenodd" d="M5.74996 0H4.24996L3.80713 1.18088C3.23589 1.35911 2.71964 1.66197 2.29022 2.05763L1.0448 1.85047L0.2948 3.14951L1.09624 4.12368C1.03321 4.40571 0.999957 4.69897 0.999957 5C0.999957 5.30104 1.03321 5.59432 1.09625 5.87636L0.294845 6.85048L1.04484 8.14952L2.29022 7.94237C2.71964 8.33803 3.23588 8.64089 3.80713 8.81912L4.24996 10H5.74996L6.19279 8.81912C6.76403 8.6409 7.28027 8.33804 7.70968 7.94237L8.95507 8.14953L9.70507 6.85049L8.90366 5.87636C8.9667 5.59432 8.99996 5.30105 8.99996 5C8.99996 4.69897 8.9667 4.4057 8.90367 4.12367L9.7051 3.14952L8.9551 1.85048L7.70969 2.05764C7.28028 1.66197 6.76403 1.35911 6.19279 1.18088L5.74996 0ZM6.99994 5C6.99994 6.10457 6.10451 7 4.99994 7C3.89537 7 2.99994 6.10457 2.99994 5C2.99994 3.89543 3.89537 3 4.99994 3C6.10451 3 6.99994 3.89543 6.99994 5Z" fill="white"/>
<path fill-rule="evenodd" clip-rule="evenodd" d="M10.5 7H11.5L11.8767 8.13013C12.3184 8.2649 12.7168 8.49884 13.0461 8.80601L14.2141 8.56699L14.7141 9.43301L13.9236 10.3244C13.9736 10.5416 14 10.7677 14 11C14 11.2323 13.9736 11.4584 13.9236 11.6755L14.7141 12.567L14.2141 13.433L13.0461 13.194C12.7168 13.5012 12.3184 13.7351 11.8767 13.8699L11.5 15H10.5L10.1233 13.8699C9.68158 13.7351 9.28314 13.5012 8.95391 13.194L7.78589 13.433L7.28589 12.567L8.07636 11.6756C8.02639 11.4584 7.99999 11.2323 7.99999 11C7.99999 10.7677 8.02639 10.5415 8.07637 10.3244L7.28591 9.43299L7.78591 8.56697L8.95393 8.80598C9.28316 8.49883 9.68159 8.26489 10.1233 8.13013L10.5 7ZM12 11C12 11.5523 11.5523 12 11 12C10.4477 12 10 11.5523 10 11C10 10.4477 10.4477 10 11 10C11.5523 10 12 10.4477 12 11Z" fill="white"/>
</svg>
