<svg width="95" height="16" viewBox="0 0 95 16" fill="none" xmlns="http://www.w3.org/2000/svg">
<path d="M1.97585 15.1847C1.5071 15.1847 1.10464 15.0189 0.768466 14.6875C0.437027 14.3513 0.271307 13.9489 0.271307 13.4801C0.271307 13.0161 0.437027 12.6184 0.768466 12.2869C1.10464 11.9555 1.5071 11.7898 1.97585 11.7898C2.4304 11.7898 2.82813 11.9555 3.16903 12.2869C3.50994 12.6184 3.6804 13.0161 3.6804 13.4801C3.6804 13.7926 3.59991 14.0791 3.43892 14.3395C3.28267 14.5952 3.0767 14.8011 2.82102 14.9574C2.56534 15.1089 2.28362 15.1847 1.97585 15.1847ZM46.7024 2.99006V0.454545H58.6484V2.99006H54.1953V15H51.1555V2.99006H46.7024ZM63.6911 0.454545V15H60.6158V0.454545H63.6911ZM66.2212 0.454545H70.0138L74.0195 10.2273H74.19L78.1957 0.454545H81.9883V15H79.0053V5.53267H78.8846L75.1204 14.929H73.0891L69.3249 5.49716H69.2042V15H66.2212V0.454545ZM84.522 15V0.454545H94.3232V2.99006H87.5973V6.45597H93.8189V8.99148H87.5973V12.4645H94.3516V15H84.522Z" fill="white"/>
<path d="M9.49538 15L5.33345 0.454545H8.69283L11.1005 10.5611H11.2212L13.8775 0.454545H16.7539L19.4031 10.5824H19.5309L21.9386 0.454545H25.2979L21.136 15H18.1388L15.369 5.49006H15.2553L12.4925 15H9.49538ZM30.0192 0.454545V15H26.9439V0.454545H30.0192ZM44.7156 0.454545V15H42.0593L35.7312 5.84517H35.6246V15H32.5494V0.454545H35.2482L41.5266 9.60227H41.6545V0.454545H44.7156Z" fill="#00FF7F"/>
</svg>
